<?xml version="1.0" standalone="no"?>
<!DOCTYPE svg PUBLIC "-//W3C//DTD SVG 1.1//EN" "http://www.w3.org/Graphics/SVG/1.1/DTD/svg11.dtd">
<svg xmlns="http://www.w3.org/2000/svg">
<defs >
<font id="Murecho" horiz-adv-x="888" ><font-face
    font-family="Murecho Thin"
    units-per-em="1000"
    panose-1="2 11 0 3 2 2 4 2 2 4"
    ascent="1160"
    descent="-288"
    alphabetic="0" />
<glyph unicode=" " horiz-adv-x="223" />
<glyph unicode="!" horiz-adv-x="306" d="M67 728H240L218 263H89L67 728ZM154 -12Q112 -12 83 17T53 89Q53 131 82 160T154 189Q196 189 224 160T253 89Q253 46 225 17T154 -12Z" />
<glyph unicode="&quot;" horiz-adv-x="502" d="M68 457L48 760H212L193 457H68ZM309 457L290 760H454L434 457H309Z" />
<glyph unicode="#" horiz-adv-x="631" d="M400 642H506L437 0H330L400 642ZM55 262H565L557 157H47L55 262ZM195 642H301L231 0H125L195 642ZM74 485H584L576 380H66L74 485Z" />
<glyph unicode="$" horiz-adv-x="537" d="M215 82L259 9Q227 9 186 13T106 26T43 45L61 166Q98 154 146 144T245 134Q269 134 289 140T320 160T332 193Q332 220 312 237T259 269T190 298T122 336T70 393T49 479Q49 535 79 576T159 641T271 665L215 585V762H323V593L262
665Q331 666 382 658T471 636L451 512Q424 522 384 531T294 541Q267 541 249 534T222 516T213 489Q213 466 233 451T286 421T355 391T424 352T477 294T498 207Q498 151 470 107T389 38T259 9L323 89V-90H215V82Z" />
<glyph unicode="%" horiz-adv-x="936" d="M589 673H690L326 0H225L589 673ZM223 308Q168 308 130 333T70 402T49 496Q49 548 70 590T129 658T223 684Q278 684 316 659T376 591T397 496Q397 445 376 402T317 334T223 308ZM223 392Q253 392 266 421T280 496Q280
543 267 571T223 600Q193 600 180 572T166 496Q166 450 179 421T223 392ZM692 -11Q638 -11 599 14T540 83T519 177Q519 229 539 271T599 339T692 365Q748 365 787 340T846 272T867 177Q867 126 847 83T787 15T692 -11ZM692 73Q723 73 736 102T750 177Q750 224 737
252T692 281Q663 281 650 253T636 177Q636 131 649 102T692 73Z" />
<glyph unicode="&amp;" horiz-adv-x="726" d="M211 349Q178 385 157 419T127 487T117 549Q117 604 143 647T215 715T322 740Q374 740 419 720T491 660T519 567Q519 533 504 499T457 432T370 369L293 449Q317 466 335 483T363 520T373 564Q373 594 360 613T322
633Q305 633 293 623T275 598T268 562Q268 540 276 519T298 479T329 441L658 90L549 -11L211 349ZM288 -11Q219 -11 167 15T86 85T57 185Q57 256 99 311T206 403L284 316Q266 303 251 288T228 253T219 208Q219 177 232 157T269 128T317 118Q349 118 374 133T420
175L514 93Q467 45 413 17T288 -11ZM472 214Q505 253 518 304T533 412H681Q679 328 643 257T556 130L472 214Z" />
<glyph unicode="&apos;" horiz-adv-x="260" d="M68 457L48 760H212L193 457H68Z" />
<glyph unicode="(" horiz-adv-x="368" d="M224 -117Q171 -63 132 12T70 176T48 360Q48 456 70 544T131 708T224 837H329Q283 778 250 701T200 537T182 360Q182 269 199 182T250 19T329 -117H224Z" />
<glyph unicode=")" horiz-adv-x="368" d="M38 -117Q85 -58 118 18T168 182T186 360Q186 450 169 537T118 701T38 837H144Q197 783 236 708T297 545T320 360Q320 265 298 176T236 12T144 -117H38Z" />
<glyph unicode="*" horiz-adv-x="474" d="M214 530L180 727Q234 741 286 727L252 530L286 332Q234 319 180 332L214 530ZM223 513L36 583Q50 637 89 674L243 546L431 477Q424 451 411 428T378 385L223 513ZM243 513L89 385Q50 423 36 477L223 546L378 674Q398
655 411 632T431 583L243 513ZM233 464Q206 464 187 483T168 530Q168 557 187 576T233 595Q260 595 279 576T299 530Q299 503 280 484T233 464Z" />
<glyph unicode="+" horiz-adv-x="583" d="M240 81V559H342V81H240ZM52 371H530V269H52V371Z" />
<glyph unicode="," horiz-adv-x="281" d="M24 -122L61 172H226L148 -139L24 -122Z" />
<glyph unicode="-" horiz-adv-x="427" d="M42 338H385V222H42V338Z" />
<glyph unicode="." horiz-adv-x="281" d="M151 -11Q109 -11 81 17T52 89Q52 131 80 160T151 189Q193 189 222 160T251 89Q251 46 222 18T151 -11Z" />
<glyph unicode="/" horiz-adv-x="413" d="M286 740H403L138 -26H20L286 740Z" />
<glyph unicode="0" horiz-adv-x="615" d="M307 -12Q216 -12 157 34T68 161T38 347Q38 450 67 531T156 658T307 704Q398 704 457 658T546 531T575 347Q575 243 546 162T458 34T307 -12ZM307 119Q342 119 364 142T396 216T406 347Q406 426 396 476T364 550T307 574Q272
574 250 551T218 477T208 347Q208 267 218 217T250 143T307 119Z" />
<glyph unicode="1" horiz-adv-x="518" d="M218 538H215L53 467V603L254 696H383V0H218V538Z" />
<glyph unicode="2" horiz-adv-x="590" d="M43 102Q115 165 173 215T273 307T337 389T359 468Q359 499 346 521T309 556T250 568Q211 568 172 557T98 527L53 643Q95 666 154 685T282 704Q358 704 413 678T498 601T528 484Q528 422 501 372T430 277T334 192T233
111L206 135H539L532 0H43V102Z" />
<glyph unicode="3" horiz-adv-x="567" d="M249 -11Q183 -11 125 5T31 39L65 158Q95 147 142 136T237 124Q279 124 306 135T347 167T361 213Q361 235 352 252T324 279T281 296T227 302H162L168 424H224Q245 424 266 428T305 440T333 463T344 499Q344 528 320 550T238
572Q199 572 161 564T92 543L65 660Q103 678 159 691T276 705Q345 705 397 684T480 625T510 531Q510 473 477 431T374 368V366Q420 358 455 335T511 277T532 195Q532 134 496 88T396 15T249 -11Z" />
<glyph unicode="4" horiz-adv-x="595" d="M328 0V429L330 549L328 550L281 461L178 289V287H570L563 158H21V272L283 696H492V0H328Z" />
<glyph unicode="5" horiz-adv-x="573" d="M242 -11Q181 -11 127 2T37 31L64 153Q95 143 141 134T231 124Q275 124 305 136T351 171T367 223Q367 276 315 301T167 326Q142 326 122 324T78 318L77 319L111 693H501L493 558H240L230 447Q239 449 251 449T279 450Q401
450 469 394T538 238Q538 165 502 109T399 21T242 -11Z" />
<glyph unicode="6" horiz-adv-x="606" d="M309 -11Q219 -11 159 29T68 137T37 291Q37 391 70 470T164 603T308 683T491 706V576Q419 578 362 562T266 508T209 409H212Q236 435 273 449T354 463Q418 463 467 436T544 358T572 238Q572 166 540 110T448 21T309 -11ZM309
115Q337 115 358 128T391 168T403 229Q403 261 392 286T359 326T305 341Q284 341 265 335T231 316T206 284Q201 245 210 206T243 141T309 115Z" />
<glyph unicode="7" horiz-adv-x="555" d="M281 465L327 556V557H31V693H518V586L241 0H60L281 465Z" />
<glyph unicode="8" horiz-adv-x="610" d="M301 -11Q216 -11 157 14T66 83T35 179Q35 238 73 287T183 362L303 296Q280 293 258 280T220 245T205 194Q205 171 217 151T252 118T306 105Q337 105 359 117T393 148T405 190Q405 221 386 243T337 279T278 298L167 341V357Q112
385 85 426T58 516Q58 576 92 617T184 681T310 703Q386 703 439 678T521 612T550 523Q550 470 517 426T428 358L306 420Q323 422 342 434T374 466T388 510Q388 529 379 547T351 577T303 589Q276 589 258 578T230 550T220 514Q220 480 251 454T333 417L443 379V363Q478
348 508 325T556 269T575 192Q575 133 541 87T446 15T301 -11Z" />
<glyph unicode="9" horiz-adv-x="606" d="M296 706Q386 706 446 666T537 558T568 404Q568 304 535 225T441 93T297 13T114 -10V120Q186 118 243 134T340 188T396 286H394Q369 261 332 247T250 233Q188 233 139 260T62 337T33 457Q33 529 66 585T158 674T296 706ZM295
581Q269 581 248 567T214 528T202 466Q202 435 213 409T246 369T299 354Q320 354 339 360T374 380T399 411Q404 450 395 489T362 554T295 581Z" />
<glyph unicode=":" horiz-adv-x="281" d="M150 313Q108 313 80 342T52 414Q52 455 80 484T150 513Q192 513 221 484T251 414Q251 371 222 342T150 313ZM150 -11Q108 -11 80 17T52 89Q52 131 80 160T150 189Q192 189 221 160T251 89Q251 46 222 18T150 -11Z" />
<glyph unicode=";" horiz-adv-x="281" d="M139 313Q97 313 69 342T40 414Q40 456 68 484T139 513Q182 513 210 485T239 414Q239 371 211 342T139 313ZM24 -122L61 172H226L148 -139L24 -122Z" />
<glyph unicode="&lt;" horiz-adv-x="565" d="M63 265V375L502 565V452L174 321V319L502 188V75L63 265Z" />
<glyph unicode="=" horiz-adv-x="582" d="M53 494H530V392H53V494ZM53 248H530V146H53V248Z" />
<glyph unicode="&gt;" horiz-adv-x="565" d="M63 188L391 319V321L63 452V565L502 375V265L63 75V188Z" />
<glyph unicode="?" horiz-adv-x="471" d="M139 263Q137 273 136 286T134 309Q134 344 147 369T180 415T219 452T252 489T265 534Q265 566 239 583T163 601Q142 601 123 598T87 591L79 720Q104 729 135 734T207 739Q274 739 324 718T403 658T431 566Q431 519 416
487T379 429T334 382T296 336T281 278Q281 275 281 271T281 263H139ZM210 -11Q167 -11 139 18T110 89Q110 131 138 160T210 189Q252 189 281 160T310 89Q310 47 281 18T210 -11Z" />
<glyph unicode="@" horiz-adv-x="878" d="M414 -156Q310 -156 228 -111T98 17T50 209Q50 296 81 372T169 507T303 599T474 632Q576 632 657 592T785 480T832 311Q832 239 806 178T734 80T628 42Q590 42 568 59T538 105T531 169H529Q498 102 454 70T363 37Q308
37 273 77T237 184Q237 231 254 278T305 367T387 432T497 457Q535 457 572 448T636 422Q628 374 621 330T608 247T602 180T611 135T641 119Q666 119 689 143T726 208T741 302Q741 379 708 434T616 518T476 548Q403 548 342 524T236 455T166 350T141 215Q141 128
176 63T275 -38T422 -74Q457 -74 489 -68T542 -56L559 -132Q526 -144 489 -150T414 -156ZM405 131Q420 131 434 140T461 170T484 219T502 287L516 369Q512 371 503 374T482 377Q459 377 437 362T398 321T371 264T361 200Q361 168 372 150T405 131Z" />
<glyph unicode="A" horiz-adv-x="652" d="M218 728H435L646 0H469L353 486L327 592H325L299 486L183 0H7L218 728ZM244 302H410L438 171H214L244 302Z" />
<glyph unicode="B" horiz-adv-x="634" d="M228 -5Q174 -5 132 -3T57 2V722Q98 725 157 728T276 731Q339 731 393 723T489 695T553 639T576 546Q576 495 544 452T450 387L452 386Q494 375 527 350T580 288T599 208Q599 148 576 107T507 42T391 6T228 -5ZM288 125Q320
125 344 130T386 147T413 177T422 220Q422 271 387 293T300 316H225V126Q239 125 254 125T288 125ZM280 438Q322 438 349 447T391 476T405 524Q405 565 377 584T301 604Q276 604 254 602T225 600V438H280Z" />
<glyph unicode="C" horiz-adv-x="613" d="M396 -12Q299 -12 230 17T117 98T53 216T32 356Q32 474 78 560T208 693T403 740Q460 740 509 731T586 708L566 572Q535 584 496 592T414 600Q355 600 309 574T236 496T210 363Q210 288 234 236T304 156T416 128Q453 128
493 135T564 154L580 19Q553 7 503 -2T396 -12Z" />
<glyph unicode="D" horiz-adv-x="707" d="M235 -5Q176 -5 134 -3T57 2V722Q108 727 167 729T283 731Q415 731 502 689T632 567T676 375Q676 239 624 156T474 34T235 -5ZM272 131Q340 131 391 154T469 230T497 371Q497 449 472 498T401 571T291 595Q273 595 257
595T227 592V133Q236 132 248 132T272 131Z" />
<glyph unicode="E" horiz-adv-x="559" d="M57 728H511L503 588H227V442H486L478 303H227V140H525L516 0H57V728Z" />
<glyph unicode="F" horiz-adv-x="543" d="M57 728H508L500 588H227V428H482L473 289H227V0H57V728Z" />
<glyph unicode="G" horiz-adv-x="685" d="M404 -12Q306 -12 236 16T120 96T54 214T32 357Q32 445 58 515T134 636T254 713T412 740Q478 740 532 728T618 704L594 566Q559 579 517 589T419 600Q374 600 336 586T269 542T226 469T210 364Q210 286 236 234T308 155T414
128Q430 128 447 130T477 136V351L547 275H374L382 406H636V28Q609 18 571 9T490 -6T404 -12Z" />
<glyph unicode="H" horiz-adv-x="704" d="M57 728H227V447H475V728H644V0H475V301H227V0H57V728Z" />
<glyph unicode="I" horiz-adv-x="286" d="M57 728H227V0H57V728Z" />
<glyph unicode="J" horiz-adv-x="286" d="M-19 -27Q14 -27 30 -20T51 8T57 72V728H227V74Q227 -6 208 -54T155 -125T79 -157T-12 -165L-19 -27Z" />
<glyph unicode="K" horiz-adv-x="641" d="M57 728H227V393L282 445L430 728H637L412 399L646 0H445L283 303L227 258V0H57V728Z" />
<glyph unicode="L" horiz-adv-x="532" d="M57 728H227V141H517L509 0H57V728Z" />
<glyph unicode="M" horiz-adv-x="884" d="M86 728H304L368 507L440 231H442L517 507L582 728H798L825 0H661L655 259L648 490H646L506 0H366L236 490H233L225 259L217 0H57L86 728Z" />
<glyph unicode="N" horiz-adv-x="706" d="M57 728H253Q314 609 372 497T489 254H493L487 454V728H646V0H466Q410 105 370 181T302 313T252 411T215 489H212L216 288V0H57V728Z" />
<glyph unicode="O" horiz-adv-x="730" d="M365 -12Q283 -12 222 17T118 97T54 217T32 364Q32 442 53 510T117 630T221 711T365 740Q447 740 508 711T612 631T676 511T698 364Q698 286 677 218T613 98T509 17T365 -12ZM365 128Q404 128 433 144T482 191T511 265T521
364Q521 419 512 462T483 537T434 584T365 600Q326 600 297 584T248 537T219 463T209 364Q209 309 218 266T247 191T296 144T365 128Z" />
<glyph unicode="P" horiz-adv-x="611" d="M57 722Q99 727 152 729T268 731Q329 731 385 721T485 686T555 617T581 502Q581 424 547 370T450 288T301 260Q282 260 262 261T225 263V0H57V722ZM274 394Q335 394 373 421T412 500Q412 551 381 574T295 598Q277 598
259 598T225 595V397Q234 396 246 395T274 394Z" />
<glyph unicode="Q" horiz-adv-x="730" d="M366 0Q255 0 181 48T69 178T32 365Q32 443 53 510T117 630T221 711T365 740Q447 740 508 711T612 631T676 517T698 383Q698 335 687 292T656 210T606 140V139H729L722 0H366ZM366 127Q405 127 434 143T482 190T511 265T521
365Q521 419 512 462T483 537T434 584T365 600Q326 600 297 584T248 537T219 463T209 365Q209 309 219 265T248 190T297 143T366 127Z" />
<glyph unicode="R" horiz-adv-x="619" d="M57 722Q102 727 157 729T273 731Q378 731 446 708T547 638T581 514Q581 467 563 429T515 364T451 324V322L610 0H428L302 279H225V0H57V722ZM293 407Q325 407 351 417T393 450T410 505Q410 557 381 578T298 600Q275 600
257 599T225 597V407H293Z" />
<glyph unicode="S" horiz-adv-x="565" d="M251 -12Q186 -12 128 1T36 28L63 160Q101 150 149 139T244 127Q279 127 304 136T344 162T358 202Q358 229 340 247T292 280T226 310Q194 325 162 342T103 384T60 443T44 524Q44 593 79 641T176 714T316 740Q369 740 418
730T502 704L478 572Q451 582 408 591T322 601Q272 601 244 583T215 533Q215 508 233 491T282 459T346 428Q379 414 411 397T471 355T514 296T531 215Q531 146 498 95T401 16T251 -12Z" />
<glyph unicode="T" horiz-adv-x="561" d="M196 587H11L19 728H549L541 587H365V0H196V587Z" />
<glyph unicode="U" horiz-adv-x="695" d="M347 -12Q251 -12 186 23T87 127T54 299V728H223V288Q223 211 253 168T347 125Q410 125 441 168T472 288V728H641V299Q641 197 608 128T509 23T347 -12Z" />
<glyph unicode="V" horiz-adv-x="662" d="M2 728H188L290 313L330 154H332L372 313L474 728H660L436 0H226L2 728Z" />
<glyph unicode="W" horiz-adv-x="917" d="M5 728H188L235 436L270 189H272L319 436L375 728H542L598 436L645 189H647L682 436L729 728H911L756 0H559L459 488H458L358 0H160L5 728Z" />
<glyph unicode="X" horiz-adv-x="616" d="M604 0L405 373L332 386L201 728H12L211 355L284 342L415 0H604ZM201 0L332 342L405 355L604 728H415L284 386L211 373L12 0H201Z" />
<glyph unicode="Y" horiz-adv-x="619" d="M226 275L1 728H188L250 565L310 394H312L372 565L435 728H621L396 275V0H226V275Z" />
<glyph unicode="Z" horiz-adv-x="580" d="M23 100L334 586V587H42L50 728H547V628L236 142V141H552L545 0H23V100Z" />
<glyph unicode="[" horiz-adv-x="331" d="M59 850H291L287 757H189V-37H291L287 -130H59V850Z" />
<glyph unicode="\" horiz-adv-x="421" d="M17 739H135L400 -28H282L17 739Z" />
<glyph unicode="]" horiz-adv-x="332" d="M44 -37H142V757H40L44 850H272V-130H40L44 -37Z" />
<glyph unicode="^" horiz-adv-x="566" d="M234 674H331L513 297H411L283 572H282L153 297H52L234 674Z" />
<glyph unicode="_" horiz-adv-x="617" d="M0 -72H587V-182H0V-72Z" />
<glyph unicode="`" horiz-adv-x="316" d="M116 599L4 744H145L219 599H116Z" />
<glyph unicode="a" horiz-adv-x="554" d="M191 -12Q143 -12 106 8T49 64T28 145Q28 184 40 212T77 259T137 286T218 295H330V338Q330 352 326 364T313 385T288 399T246 404Q203 404 161 394T88 373L61 490Q86 500 121 509T196 525T276 532Q341 532 384 520T452
483T487 424T498 343V122Q498 90 499 57T503 0H382L348 62H346Q315 26 276 7T191 -12ZM251 101Q274 101 298 113T333 145V206H247Q236 206 226 204T207 197T193 181T188 154Q188 128 205 115T251 101Z" />
<glyph unicode="b" horiz-adv-x="600" d="M350 -12Q318 -12 293 -4T246 22T208 65H206L168 0H50Q51 16 52 39T53 89T54 139T54 177V748L223 752V464H225Q243 487 280 509T367 532Q430 532 475 500T544 409T568 272Q568 186 539 123T461 24T350 -12ZM302 119Q337
119 357 139T385 193T394 264Q394 315 382 344T349 385T305 398Q288 398 272 392T244 376T223 353V189Q225 172 235 156T263 129T302 119Z" />
<glyph unicode="c" horiz-adv-x="490" d="M305 -12Q223 -12 161 19T65 111T30 258Q30 336 63 398T162 495T323 531Q354 531 392 526T462 507L445 384Q425 391 395 397T332 403Q294 403 265 388T219 341T203 262Q203 211 222 180T273 133T340 118Q372 118 402 124T454
136L467 15Q439 4 393 -4T305 -12Z" />
<glyph unicode="d" horiz-adv-x="599" d="M243 -12Q180 -12 132 22T57 117T30 256Q30 338 57 399T132 496T243 532Q284 532 318 517T373 476H375V748L544 752V159Q544 139 544 108T545 48T548 0H430L393 66H391Q366 30 330 9T243 -12ZM295 120Q328 120 350 141T375
189V364Q360 383 338 392T297 402Q270 402 249 385T215 335T203 258Q203 212 215 181T248 135T295 120Z" />
<glyph unicode="e" horiz-adv-x="547" d="M304 -12Q215 -12 155 19T62 110T30 254Q30 308 46 357T94 446T175 509T292 532Q361 532 408 507T481 438T514 338T512 218H119L210 285Q188 224 198 186T243 130T327 112Q364 112 404 119T476 136L493 21Q450 5 400 -3T304
-12ZM120 306H364Q365 311 365 314T365 319Q365 345 358 366T334 402T287 416Q252 416 230 395T201 339T200 268L120 306Z" />
<glyph unicode="f" horiz-adv-x="356" d="M77 399H14L22 515L77 520V541Q77 643 131 701T286 759Q307 759 328 757T368 750L355 623Q348 625 342 625T325 626Q295 626 277 615T251 583T243 539V520H345L337 399H246V0H77V399Z" />
<glyph unicode="g" horiz-adv-x="567" d="M269 137Q205 137 151 161T65 229T33 334Q33 394 65 438T151 507T269 532Q335 532 388 508T473 439T505 334Q505 274 474 230T390 161T269 137ZM269 241Q294 241 310 252T335 284T343 334Q343 362 335 383T311 415T269
427Q245 427 229 416T205 383T197 334Q197 305 205 284T229 252T269 241ZM258 -235Q213 -235 168 -228T84 -204T23 -160T0 -93Q0 -50 22 -23T81 22V24Q61 37 53 51T44 85Q44 116 67 143T121 192L184 163Q174 153 168 143T162 122Q162 109 174 104T211 96L341 88Q372
86 409 81T479 63T533 23T554 -47Q554 -94 522 -137T425 -208T258 -235ZM270 -112Q319 -112 348 -105T392 -85T406 -60Q406 -49 399 -43T378 -32T350 -26T318 -23L209 -15Q189 -13 176 -10T153 -1L164 -3Q153 -10 143 -22T133 -49Q133 -66 143 -77T171 -96T215
-108T270 -112ZM327 520H562V434H451L327 520Z" />
<glyph unicode="h" horiz-adv-x="609" d="M54 748L223 752V463H225Q248 485 272 500T323 523T379 532Q428 532 461 515T515 467T545 395T554 304V0H385V298Q385 322 381 340T368 371T345 391T311 398Q292 398 276 392T246 376T223 356V0H54V748Z" />
<glyph unicode="i" horiz-adv-x="280" d="M56 520L225 524V0H56V520ZM140 573Q101 573 73 597T45 662Q45 702 73 727T140 752Q179 752 207 727T235 662Q235 622 207 598T140 573Z" />
<glyph unicode="j" horiz-adv-x="280" d="M9 -205L0 -73Q24 -73 36 -66T52 -44T56 -1V520L225 524V-26Q225 -96 203 -135T134 -190T9 -205ZM140 573Q100 573 73 597T45 662Q45 702 72 727T140 752Q179 752 207 727T235 662Q235 622 207 598T140 573Z" />
<glyph unicode="k" horiz-adv-x="571" d="M54 748L223 752V317L294 352L240 298L361 520H560L352 257L351 341L583 0H373L234 272L309 227L223 185V0H54V748Z" />
<glyph unicode="l" horiz-adv-x="278" d="M54 748L223 752V0H54V748Z" />
<glyph unicode="m" horiz-adv-x="905" d="M54 349Q54 397 54 437T51 520L194 524L205 462H209Q227 477 250 493T303 520T368 532Q418 532 454 512T507 456H510Q533 475 559 492T615 521T681 532Q729 532 761 515T813 468T842 399T851 315V0H684V289Q684 322 678
346T658 384T619 398Q598 398 581 390T549 370T525 344L534 388Q535 358 535 338T536 288V0H369V285Q369 316 365 341T347 382T306 398Q286 398 270 392T242 375T220 356V0H54V349Z" />
<glyph unicode="n" horiz-adv-x="608" d="M54 348Q54 397 54 440T51 520L195 524L206 462H211Q227 477 252 493T309 520T379 532Q427 532 460 515T514 468T544 397T554 309V0H385V305Q385 329 380 346T365 376T342 393T312 398Q292 398 276 392T247 376T223 356V0H54V348Z"
/>
<glyph unicode="o" horiz-adv-x="599" d="M300 -12Q250 -12 202 3T116 51T54 135T31 260Q31 333 54 385T115 469T202 516T300 532Q350 532 398 517T485 469T546 385T569 260Q569 187 547 135T486 51T399 4T300 -12ZM300 110Q321 110 338 118T368 143T388 189T395
260Q395 302 388 331T368 377T338 402T300 410Q280 410 263 402T232 377T212 331T205 260Q205 218 212 189T232 143T262 118T300 110Z" />
<glyph unicode="p" horiz-adv-x="601" d="M55 337Q55 382 54 431T51 520L194 524L206 457H210Q239 487 278 509T368 532Q431 532 476 500T545 409T569 272Q569 186 540 123T462 24T351 -12Q324 -12 301 -5T259 16T226 47H224V-224H55V337ZM303 119Q337 119 357
139T386 193T395 264Q395 315 383 344T350 385T306 398Q289 398 273 392T245 376T224 353V190Q226 172 236 156T264 129T303 119Z" />
<glyph unicode="q" horiz-adv-x="598" d="M374 58H372Q357 33 324 11T240 -12Q177 -12 130 22T56 117T30 256Q30 338 57 399T131 496T243 532Q282 532 320 515T389 461H391L403 524L546 520Q545 486 544 440T543 350V-224H374V58ZM295 120Q328 120 349 141T374
189V364Q360 383 338 392T297 402Q270 402 249 385T215 335T203 258Q203 212 215 181T248 135T295 120Z" />
<glyph unicode="r" horiz-adv-x="405" d="M54 0V351Q54 407 53 446T51 520L195 524L209 441H212Q241 483 284 509T387 530V382Q340 388 296 380T223 338V0H54Z" />
<glyph unicode="s" horiz-adv-x="465" d="M207 -12Q160 -12 111 -2T30 21L49 134Q67 129 93 123T150 112T209 107Q243 107 258 118T273 146Q273 161 260 171T226 190T181 208Q149 221 117 239T62 289T39 368Q39 420 67 456T143 512T253 532Q298 532 339 524T410
502L391 390Q376 395 353 400T305 409T259 413Q234 413 218 405T201 377Q201 364 213 355T244 337T287 320Q320 308 354 289T412 239T436 157Q436 106 408 68T328 9T207 -12Z" />
<glyph unicode="t" horiz-adv-x="385" d="M244 -12Q193 -12 161 2T110 44T85 109T78 196V399H15L23 516L86 520L96 639L246 669V520H360L352 399H246V211Q246 185 252 167T274 138T316 128Q327 128 337 128T357 131L358 4Q342 0 309 -6T244 -12Z" />
<glyph unicode="u" horiz-adv-x="606" d="M230 -12Q162 -12 124 18T70 101T54 215V520H223V217Q223 171 240 147T297 122Q316 122 331 128T359 143T382 164V520H551V172Q551 123 551 80T554 0H437L400 66H396Q380 48 355 30T298 0T230 -12Z" />
<glyph unicode="v" horiz-adv-x="538" d="M1 520H181L268 151H270L357 520H537L356 0H182L1 520Z" />
<glyph unicode="w" horiz-adv-x="793" d="M2 520H177L245 147H247L280 307L326 520H466L513 307L545 147H547L616 520H791L643 0H470L397 314H395L324 0H150L2 520Z" />
<glyph unicode="x" horiz-adv-x="535" d="M182 0L293 229L351 245L533 520H354L241 291L184 275L2 0H182ZM533 0L351 275L293 291L182 520H2L184 245L241 229L354 0H533Z" />
<glyph unicode="y" horiz-adv-x="529" d="M203 10L262 124L351 520H530L265 -224H89L203 10ZM1 520H180L264 151H307L302 1H181L1 520Z" />
<glyph unicode="z" horiz-adv-x="489" d="M26 103L263 394H42L50 520H462V415L231 129L470 128L462 0H26V103Z" />
<glyph unicode="{" horiz-adv-x="378" d="M336 -130Q219 -130 166 -96T113 20Q113 49 117 86T126 159T131 224Q131 251 124 271T97 303T37 319V401Q77 406 97 418T124 450T131 497Q131 525 127 562T118 635T113 701Q113 782 167 816T341 850L336 767Q276 767 257
744T237 674Q237 655 240 626T247 564T250 504Q250 457 235 428T192 384T129 361V359Q165 353 192 338T234 293T250 216Q250 189 247 157T241 95T237 47Q237 0 259 -23T341 -47L336 -130Z" />
<glyph unicode="|" horiz-adv-x="280" d="M82 810H192V-80H82V810Z" />
<glyph unicode="}" horiz-adv-x="375" d="M40 850Q157 850 210 816T264 701Q264 672 260 636T251 562T246 497Q246 470 253 450T280 418T339 401V319Q300 316 280 304T253 271T246 224Q246 196 251 160T260 86T264 20Q264 -61 211 -95T36 -130L40 -47Q101 -47
120 -24T140 47Q140 66 137 95T131 156T127 216Q127 264 142 293T185 337T247 359V361Q213 368 186 383T143 428T127 504Q127 532 130 564T137 625T140 674Q140 720 119 743T36 767L40 850Z" />
<glyph unicode="~" horiz-adv-x="580" d="M399 229Q369 229 340 240T282 265T230 291T185 302Q157 302 147 280T132 236L52 246Q64 316 94 360T182 404Q212 404 241 393T298 368T351 342T396 331Q423 331 433 353T449 397L529 387Q517 317 487 273T399 229Z" />
<glyph unicode="&#xa0;" horiz-adv-x="265" />
<glyph unicode="&#xa1;" horiz-adv-x="306" d="M89 257H218L240 -208H67L89 257ZM154 331Q112 331 83 360T53 431Q53 473 82 502T154 531Q196 531 224 502T253 431Q253 389 225 360T154 331Z" />
<glyph unicode="&#xa2;" horiz-adv-x="537" d="M258 168L308 88Q233 87 177 116T89 200T57 334Q57 406 86 463T170 555T306 590L258 509V688H367V513L345 590Q361 590 383 589T429 583T470 570L456 448Q438 454 413 459T353 464Q320 464 291 454T243 418T224 342Q224
293 243 265T291 225T351 213Q384 213 412 218T462 231L475 111Q444 99 401 94T313 88L367 165V-12H258V168Z" />
<glyph unicode="&#xa3;" horiz-adv-x="562" d="M38 80Q63 96 84 119T120 170T135 230Q135 253 127 276T94 340L207 271H46L54 380H110Q105 401 102 421T99 460Q99 527 131 573T217 642T335 666Q383 666 422 659T483 642L468 525Q442 533 415 537T359 542Q308 542
282 519T256 452Q256 435 260 417T269 380H402L395 271H208L278 319Q279 310 279 302T280 284Q280 240 264 198T217 124V122H500L492 0H49L38 80Z" />
<glyph unicode="&#xa4;" horiz-adv-x="700" d="M350 130Q287 130 235 161T151 244T120 360Q120 424 151 476T234 559T350 590Q414 590 466 559T549 476T580 360Q580 297 549 245T466 161T350 130ZM350 230Q386 230 415 247T462 295T480 360Q480 396 463 425T416
472T350 490Q315 490 285 473T238 426T220 360Q220 325 237 295T285 248T350 230ZM71 568L142 639L240 541L169 470L71 568ZM460 179L531 250L629 152L558 81L460 179ZM558 639L629 568L531 470L460 541L558 639ZM169 250L240 179L142 81L71 152L169 250Z" />
<glyph unicode="&#xa5;" horiz-adv-x="564" d="M201 100H51L50 172H201V226H51L50 296H191L6 655H186L281 372H283L378 656H558L373 296H514V226H364V172H514V100H364V0H201V100Z" />
<glyph unicode="&#xa6;" horiz-adv-x="280" d="M82 810H192V465H82V810ZM82 265H192V-80H82V265Z" />
<glyph unicode="&#xa7;" horiz-adv-x="559" d="M239 -84Q194 -84 143 -75T54 -50L73 56Q93 50 122 44T182 33T240 28Q284 28 309 41T335 80Q335 97 321 109T283 132T230 154Q202 165 173 178T119 211T79 258T63 324Q63 391 110 433T233 489L280 405Q248 402 225
386T202 342Q202 322 217 309T258 286T314 264Q352 250 390 229T455 176T482 92Q482 38 451 -1T365 -62T239 -84ZM287 242Q321 247 341 263T362 305Q362 326 347 339T307 364T250 388Q223 399 194 412T140 445T99 492T83 558Q83 612 112 650T194 708T313 728Q356
728 400 719T475 697L456 591Q440 597 415 603T363 612T315 616Q277 616 254 604T230 569Q230 553 244 541T282 519T333 498Q371 484 410 464T475 411T502 327Q502 267 463 225T357 165L287 242Z" />
<glyph unicode="&#xa8;" horiz-adv-x="407" d="M97 581Q64 581 43 601T22 652Q22 682 43 702T97 723Q129 723 150 703T171 652Q171 622 150 602T97 581ZM310 581Q278 581 257 601T236 652Q236 682 257 702T310 723Q343 723 364 703T385 652Q385 622 364 602T310 581Z" />
<glyph unicode="&#xa9;" horiz-adv-x="812" d="M406 1Q333 1 271 26T163 98T91 207T65 342Q65 415 90 477T162 585T271 657T406 683Q479 683 541 658T649 586T721 477T747 342Q747 269 722 207T650 99T541 27T406 1ZM417 153Q354 153 312 177T250 243T229 337Q229
423 281 477T424 531Q458 531 487 525T536 510L523 446Q507 451 485 455T436 460Q375 460 344 430T312 340Q312 300 326 274T367 236T431 224Q458 224 484 230T531 243L543 182Q515 166 484 160T417 153ZM406 54Q467 54 519 75T610 136T671 228T693 342Q693 403
671 455T611 547T520 608T406 630Q345 630 293 609T202 548T141 456T119 342Q119 281 141 229T201 137T292 76T406 54Z" />
<glyph unicode="&#xaa;" horiz-adv-x="346" d="M119 275Q76 275 48 302T20 370Q20 401 32 421T68 451T122 461H204V488Q204 498 200 506T185 518T153 522Q122 522 99 516T57 503L40 579Q63 588 98 596T177 604Q224 604 253 593T296 560T310 501V354Q310 333 310
314T313 281H236L212 316H210Q192 295 169 285T119 275ZM159 346Q169 346 179 349T197 359T205 375V403H153Q146 403 139 401T128 393T123 376Q123 360 134 353T159 346Z" />
<glyph unicode="&#xab;" horiz-adv-x="674" d="M613 46L358 238V342L613 534V400L419 251V329L613 180V46ZM316 46L62 238V342L316 534V400L122 251V329L316 180V46Z" />
<glyph unicode="&#xac;" horiz-adv-x="611" d="M447 274H63V376H548V74H447V274Z" />
<glyph unicode="&#xad;" horiz-adv-x="429" d="M44 338H386V222H44V338Z" />
<glyph unicode="&#xae;" horiz-adv-x="666" d="M333 200Q262 200 206 232T118 320T86 447Q86 518 118 574T206 662T333 694Q404 694 460 662T548 574T580 447Q580 376 548 320T460 232T333 200ZM333 248Q391 248 435 273T505 344T530 447Q530 506 505 550T436
620T333 646Q275 646 230 621T160 551T135 447Q135 389 160 344T230 274T333 248ZM246 570Q259 572 281 573T326 575Q376 575 401 554T426 497Q426 471 414 453T371 424V422L439 323H384L322 416H294V323H246V570ZM324 458Q347 458 361 466T376 496Q376 532 326
532Q317 532 310 532T294 530V458H324Z" />
<glyph unicode="&#xaf;" horiz-adv-x="396" d="M50 603V691H346V603H50Z" />
<glyph unicode="&#xb0;" horiz-adv-x="372" d="M188 439Q150 439 119 457T70 505T51 573Q51 612 69 642T119 690T188 708Q227 708 258 691T307 643T325 573Q325 535 307 505T258 457T188 439ZM188 506Q216 506 235 525T254 573Q254 603 235 622T188 641Q159 641
141 622T123 573Q123 544 141 525T188 506Z" />
<glyph unicode="&#xb1;" horiz-adv-x="584" d="M241 81V559H343V81H241ZM53 371H531V269H53V371ZM53 94H531V2H53V94Z" />
<glyph unicode="&#xb2;" horiz-adv-x="372" d="M25 470Q81 517 123 552T190 615T215 672Q215 698 198 711T154 724Q131 724 107 718T61 700L29 784Q56 797 93 808T177 820Q226 820 261 804T316 758T336 684Q336 647 319 618T275 563T218 517T162 478L143 495L341
494L336 398H25V470Z" />
<glyph unicode="&#xb3;" horiz-adv-x="358" d="M158 391Q116 391 78 401T16 423L40 508Q60 502 89 495T148 488Q183 488 199 498T216 528Q216 541 207 550T183 565T144 571H101L106 658H141Q155 658 170 660T195 670T206 691Q206 703 194 714T146 725Q122 725
98 721T57 710L38 794Q62 805 98 813T174 821Q240 821 283 793T326 714Q326 682 307 656T243 618V617Q285 610 312 583T339 514Q339 477 315 450T250 407T158 391Z" />
<glyph unicode="&#xb4;" horiz-adv-x="316" d="M95 599L170 744H311L198 599H95Z" />
<glyph unicode="&#xb5;" horiz-adv-x="579" d="M223 -12Q155 -12 117 20T64 107T49 234V485H218V216Q218 171 233 146T284 121Q302 121 317 127T344 143T367 164V485H536V172Q536 123 537 80T539 0H421L385 66H382Q365 48 340 30T286 0T223 -12ZM49 392H201V-200H49V392Z" />
<glyph unicode="&#xb6;" horiz-adv-x="562" d="M207 337L298 247Q166 247 95 304T23 462Q23 563 95 618T324 674V-80H207V337ZM384 674H501V-80H384V674Z" />
<glyph unicode="&#xb7;" horiz-adv-x="283" d="M151 154Q109 154 81 182T52 254Q52 296 80 325T151 354Q194 354 223 325T252 254Q252 211 223 183T151 154Z" />
<glyph unicode="&#xb8;" horiz-adv-x="600" d="M259 -236Q235 -236 210 -232T161 -221L186 -170Q204 -173 222 -175T255 -177Q289 -177 305 -167T321 -137Q321 -119 309 -112T277 -104T239 -111L212 -87L255 1H319L289 -60Q322 -57 348 -65T389 -90T404 -134Q404
-181 365 -208T259 -236Z" />
<glyph unicode="&#xb9;" horiz-adv-x="327" d="M131 703H130L26 661V757L157 816H250V398H131V703Z" />
<glyph unicode="&#xba;" horiz-adv-x="368" d="M184 274Q143 274 105 290T43 343T19 438Q19 501 43 537T105 588T184 604Q225 604 262 588T324 536T349 438Q349 379 325 343T263 291T184 274ZM184 352Q199 352 211 359T230 386T238 439Q238 474 231 493T211 519T184
527Q169 527 157 520T137 493T130 439Q130 405 137 386T156 360T184 352Z" />
<glyph unicode="&#xbb;" horiz-adv-x="674" d="M358 46V180L552 329V251L358 400V534L613 342V238L358 46ZM62 46V180L256 329V251L62 400V534L316 342V238L62 46Z" />
<glyph unicode="&#xbc;" horiz-adv-x="880" d="M131 583H130L26 541V637L157 696H250V278H131V583ZM665 696L279 0H167L554 696H665ZM704 0V254V313L703 314L676 260L631 181V179H865L860 87H518V169L670 418H821V0H704Z" />
<glyph unicode="&#xbd;" horiz-adv-x="877" d="M131 583H130L26 541V637L157 696H250V278H131V583ZM665 696L279 0H167L554 696H665ZM530 72Q586 119 628 154T695 217T720 274Q720 300 703 313T659 326Q636 326 612 320T566 302L534 386Q561 399 598 410T682 422Q731
422 766 406T821 360T841 286Q841 249 824 220T780 165T723 119T667 80L648 97L846 96L841 0H530V72Z" />
<glyph unicode="&#xbe;" horiz-adv-x="911" d="M158 271Q116 271 78 281T16 303L40 388Q60 382 89 375T148 368Q183 368 199 378T216 408Q216 421 207 430T183 445T144 451H101L106 538H141Q155 538 170 540T195 550T206 571Q206 583 194 594T146 605Q122 605
98 601T57 590L38 674Q62 685 98 693T174 701Q240 701 283 673T326 594Q326 562 307 536T243 498V497Q285 490 312 463T339 394Q339 357 315 330T250 287T158 271ZM696 696L310 0H198L585 696H696ZM735 0V254V313L734 314L707 260L662 181V179H896L891 87H549V169L701
418H852V0H735Z" />
<glyph unicode="&#xbf;" horiz-adv-x="471" d="M264 -219Q198 -219 147 -198T68 -138T40 -46Q40 1 55 33T93 91T137 138T175 184T190 242Q190 246 190 250T190 257H332Q334 247 335 234T336 211Q336 176 323 151T291 105T252 68T219 31T206 -14Q206 -45 232 -63T307
-81Q330 -81 349 -78T384 -71L392 -200Q368 -208 336 -213T264 -219ZM261 331Q219 331 191 360T162 431Q162 473 190 502T261 531Q303 531 332 502T361 431Q361 389 332 360T261 331Z" />
<glyph unicode="&#xc0;" horiz-adv-x="652" d="M218 728H435L646 0H469L353 486L327 592H325L299 486L183 0H7L218 728ZM244 302H410L438 171H214L244 302ZM275 771L162 903H304L378 771H275Z" />
<glyph unicode="&#xc1;" horiz-adv-x="652" d="M218 728H435L646 0H469L353 486L327 592H325L299 486L183 0H7L218 728ZM244 302H410L438 171H214L244 302ZM274 771L348 903H489L378 771H274Z" />
<glyph unicode="&#xc2;" horiz-adv-x="652" d="M218 728H435L646 0H469L353 486L327 592H325L299 486L183 0H7L218 728ZM244 302H410L438 171H214L244 302ZM143 771L246 899H406L512 771H383L327 848L271 771H143Z" />
<glyph unicode="&#xc3;" horiz-adv-x="652" d="M218 728H435L646 0H469L353 486L327 592H325L299 486L183 0H7L218 728ZM244 302H410L438 171H214L244 302ZM419 899L492 883Q482 831 454 802T386 773Q365 773 347 780T315 798T288 815T267 823Q257 823 248 812T234
774L160 788Q170 841 198 869T267 898Q287 898 305 891T338 873T364 856T386 849Q396 849 405 861T419 899Z" />
<glyph unicode="&#xc4;" horiz-adv-x="652" d="M218 728H435L646 0H469L353 486L327 592H325L299 486L183 0H7L218 728ZM244 302H410L438 171H214L244 302ZM220 769Q187 769 166 789T145 840Q145 870 166 890T220 911Q252 911 273 891T294 840Q294 810 273 790T220
769ZM433 769Q401 769 380 789T359 840Q359 870 380 890T433 911Q466 911 487 891T508 840Q508 810 487 790T433 769Z" />
<glyph unicode="&#xc5;" horiz-adv-x="652" d="M218 728H435L646 0H469L353 486L327 592H325L299 486L183 0H7L218 728ZM244 302H410L438 171H214L244 302ZM326 704Q297 704 273 718T235 758T220 812Q220 842 234 865T273 903T326 917Q356 917 380 903T418 866T433
812Q433 783 419 758T380 719T326 704ZM326 759Q348 759 363 774T379 812Q379 833 364 848T327 863Q305 863 290 848T275 812Q275 790 290 775T326 759Z" />
<glyph unicode="&#xc6;" horiz-adv-x="872" d="M287 728H504L446 592H395L183 0H7L287 728ZM248 302H402L429 171H219L248 302ZM399 728H824L816 588H569V442H799L791 303H569V140H838L829 0H399V728Z" />
<glyph unicode="&#xc7;" horiz-adv-x="613" d="M396 -12Q299 -12 230 17T117 98T53 216T32 356Q32 474 78 560T208 693T403 740Q460 740 509 731T586 708L566 572Q535 584 496 592T414 600Q355 600 309 574T236 496T210 363Q210 288 234 236T304 156T416 128Q453
128 493 135T564 154L580 19Q553 7 503 -2T396 -12ZM345 -237Q321 -237 296 -233T247 -222L272 -171Q290 -174 308 -176T341 -178Q375 -178 391 -168T407 -138Q407 -119 395 -112T363 -105T325 -112L298 -87L340 0H405L375 -61Q408 -58 434 -66T475 -91T490 -135Q490
-182 451 -209T345 -237Z" />
<glyph unicode="&#xc8;" horiz-adv-x="559" d="M57 728H511L503 588H227V442H486L478 303H227V140H525L516 0H57V728ZM243 771L130 903H272L346 771H243Z" />
<glyph unicode="&#xc9;" horiz-adv-x="559" d="M57 728H511L503 588H227V442H486L478 303H227V140H525L516 0H57V728ZM241 771L315 903H456L345 771H241Z" />
<glyph unicode="&#xca;" horiz-adv-x="559" d="M57 728H511L503 588H227V442H486L478 303H227V140H525L516 0H57V728ZM110 771L213 899H373L479 771H350L294 848L238 771H110Z" />
<glyph unicode="&#xcb;" horiz-adv-x="559" d="M57 728H511L503 588H227V442H486L478 303H227V140H525L516 0H57V728ZM187 769Q154 769 133 789T112 840Q112 870 133 890T187 911Q219 911 240 891T261 840Q261 810 240 790T187 769ZM400 769Q368 769 347 789T326
840Q326 870 347 890T400 911Q433 911 454 891T475 840Q475 810 454 790T400 769Z" />
<glyph unicode="&#xcc;" horiz-adv-x="286" d="M57 728H227V0H57V728ZM347 771L234 903H376L450 771H347Z" />
<glyph unicode="&#xcd;" horiz-adv-x="286" d="M57 728H227V0H57V728ZM90 771L164 903H305L194 771H90Z" />
<glyph unicode="&#xce;" horiz-adv-x="286" d="M57 728H227V0H57V728ZM215 771L318 899H478L584 771H455L399 848L343 771H215Z" />
<glyph unicode="&#xcf;" horiz-adv-x="286" d="M57 728H227V0H57V728ZM292 769Q259 769 238 789T217 840Q217 870 238 890T292 911Q324 911 345 891T366 840Q366 810 345 790T292 769ZM505 769Q473 769 452 789T431 840Q431 870 452 890T505 911Q538 911 559 891T580
840Q580 810 559 790T505 769Z" />
<glyph unicode="&#xd0;" horiz-adv-x="708" d="M236 -5Q177 -5 135 -3T58 2V722Q109 727 168 729T284 731Q415 731 502 689T633 567T676 375Q676 239 625 156T475 34T236 -5ZM273 131Q341 131 391 154T470 230T498 371Q498 449 473 498T402 571T292 595Q274 595
258 595T228 592V133Q237 132 249 132T273 131ZM4 294L11 434H361L354 294H4Z" />
<glyph unicode="&#xd1;" horiz-adv-x="706" d="M57 728H253Q314 609 372 497T489 254H493L487 454V728H646V0H466Q410 105 370 181T302 313T252 411T215 489H212L216 288V0H57V728ZM457 899L530 883Q520 831 492 802T424 773Q403 773 385 780T353 798T326 815T305
823Q295 823 286 812T272 774L198 788Q208 841 236 869T305 898Q325 898 343 891T376 873T402 856T424 849Q434 849 443 861T457 899Z" />
<glyph unicode="&#xd2;" horiz-adv-x="730" d="M365 -12Q283 -12 222 17T118 97T54 217T32 364Q32 442 53 510T117 630T221 711T365 740Q447 740 508 711T612 631T676 511T698 364Q698 286 677 218T613 98T509 17T365 -12ZM365 128Q404 128 433 144T482 191T511
265T521 364Q521 419 512 462T483 537T434 584T365 600Q326 600 297 584T248 537T219 463T209 364Q209 309 218 266T247 191T296 144T365 128ZM314 771L201 903H343L417 771H314Z" />
<glyph unicode="&#xd3;" horiz-adv-x="730" d="M365 -12Q283 -12 222 17T118 97T54 217T32 364Q32 442 53 510T117 630T221 711T365 740Q447 740 508 711T612 631T676 511T698 364Q698 286 677 218T613 98T509 17T365 -12ZM365 128Q404 128 433 144T482 191T511
265T521 364Q521 419 512 462T483 537T434 584T365 600Q326 600 297 584T248 537T219 463T209 364Q209 309 218 266T247 191T296 144T365 128ZM313 771L387 903H528L417 771H313Z" />
<glyph unicode="&#xd4;" horiz-adv-x="730" d="M365 -12Q283 -12 222 17T118 97T54 217T32 364Q32 442 53 510T117 630T221 711T365 740Q447 740 508 711T612 631T676 511T698 364Q698 286 677 218T613 98T509 17T365 -12ZM365 128Q404 128 433 144T482 191T511
265T521 364Q521 419 512 462T483 537T434 584T365 600Q326 600 297 584T248 537T219 463T209 364Q209 309 218 266T247 191T296 144T365 128ZM181 771L284 899H444L550 771H421L365 848L309 771H181Z" />
<glyph unicode="&#xd5;" horiz-adv-x="730" d="M365 -12Q283 -12 222 17T118 97T54 217T32 364Q32 442 53 510T117 630T221 711T365 740Q447 740 508 711T612 631T676 511T698 364Q698 286 677 218T613 98T509 17T365 -12ZM365 128Q404 128 433 144T482 191T511
265T521 364Q521 419 512 462T483 537T434 584T365 600Q326 600 297 584T248 537T219 463T209 364Q209 309 218 266T247 191T296 144T365 128ZM458 899L531 883Q521 831 493 802T425 773Q404 773 386 780T354 798T327 815T306 823Q296 823 287 812T273 774L199
788Q209 841 237 869T306 898Q326 898 344 891T377 873T403 856T425 849Q435 849 444 861T458 899Z" />
<glyph unicode="&#xd6;" horiz-adv-x="730" d="M365 -12Q283 -12 222 17T118 97T54 217T32 364Q32 442 53 510T117 630T221 711T365 740Q447 740 508 711T612 631T676 511T698 364Q698 286 677 218T613 98T509 17T365 -12ZM365 128Q404 128 433 144T482 191T511
265T521 364Q521 419 512 462T483 537T434 584T365 600Q326 600 297 584T248 537T219 463T209 364Q209 309 218 266T247 191T296 144T365 128ZM259 769Q226 769 205 789T184 840Q184 870 205 890T259 911Q291 911 312 891T333 840Q333 810 312 790T259 769ZM472
769Q440 769 419 789T398 840Q398 870 419 890T472 911Q505 911 526 891T547 840Q547 810 526 790T472 769Z" />
<glyph unicode="&#xd7;" horiz-adv-x="576" d="M438 101L72 467L144 539L510 173L438 101ZM72 173L438 539L510 467L144 101L72 173Z" />
<glyph unicode="&#xd8;" horiz-adv-x="730" d="M365 -11Q283 -11 222 18T118 98T54 218T32 364Q32 442 53 510T117 629T221 710T365 739Q447 739 508 710T612 630T676 510T698 364Q698 286 677 218T613 99T509 18T365 -11ZM365 128Q404 128 433 144T482 191T511
265T521 364Q521 419 512 462T483 537T434 584T365 600Q326 600 297 584T248 537T219 463T209 364Q209 309 218 266T247 191T296 144T365 128ZM202 -62L109 -20L528 790L621 748L202 -62Z" />
<glyph unicode="&#xd9;" horiz-adv-x="695" d="M347 -12Q251 -12 186 23T87 127T54 299V728H223V288Q223 211 253 168T347 125Q410 125 441 168T472 288V728H641V299Q641 197 608 128T509 23T347 -12ZM295 766L182 898H324L398 766H295Z" />
<glyph unicode="&#xda;" horiz-adv-x="695" d="M347 -12Q251 -12 186 23T87 127T54 299V728H223V288Q223 211 253 168T347 125Q410 125 441 168T472 288V728H641V299Q641 197 608 128T509 23T347 -12ZM295 771L369 903H510L399 771H295Z" />
<glyph unicode="&#xdb;" horiz-adv-x="695" d="M347 -12Q251 -12 186 23T87 127T54 299V728H223V288Q223 211 253 168T347 125Q410 125 441 168T472 288V728H641V299Q641 197 608 128T509 23T347 -12ZM163 771L266 899H426L532 771H403L347 848L291 771H163Z" />
<glyph unicode="&#xdc;" horiz-adv-x="695" d="M347 -12Q251 -12 186 23T87 127T54 299V728H223V288Q223 211 253 168T347 125Q410 125 441 168T472 288V728H641V299Q641 197 608 128T509 23T347 -12ZM241 769Q208 769 187 789T166 840Q166 870 187 890T241 911Q273
911 294 891T315 840Q315 810 294 790T241 769ZM454 769Q422 769 401 789T380 840Q380 870 401 890T454 911Q487 911 508 891T529 840Q529 810 508 790T454 769Z" />
<glyph unicode="&#xdd;" horiz-adv-x="619" d="M226 275L1 728H188L250 565L310 394H312L372 565L435 728H621L396 275V0H226V275ZM259 771L333 903H474L363 771H259Z" />
<glyph unicode="&#xde;" horiz-adv-x="609" d="M57 728H225V595Q243 595 265 596T321 597Q407 597 464 569T550 492T580 376Q580 297 547 243T455 162T312 134Q285 134 263 136T225 137V0H57V728ZM292 268Q349 268 379 293T410 369Q410 421 379 442T296 463Q274
463 257 463T225 460V272Q240 271 257 270T292 268Z" />
<glyph unicode="&#xdf;" horiz-adv-x="653" d="M411 -11Q375 -11 340 -4T273 17L292 133Q311 126 338 120T389 113Q425 113 441 126T458 158Q458 175 443 191T404 224T357 262T318 311T302 379Q302 423 322 458T376 522T446 573L424 541Q421 587 396 618T324 649Q290
649 271 633T244 591T234 536T232 479V0H63V463Q63 505 68 549T88 633T131 707T206 759T319 778Q404 778 457 749T538 670T572 561Q531 533 498 494T465 412Q465 382 480 361T519 320T566 279T605 228T621 156Q621 101 593 64T517 8T411 -11Z" />
<glyph unicode="&#xe0;" horiz-adv-x="554" d="M191 -12Q143 -12 106 8T49 64T28 145Q28 184 40 212T77 259T137 286T218 295H330V338Q330 352 326 364T313 385T288 399T246 404Q203 404 161 394T88 373L61 490Q86 500 121 509T196 525T276 532Q341 532 384 520T452
483T487 424T498 343V122Q498 90 499 57T503 0H382L348 62H346Q315 26 276 7T191 -12ZM251 101Q274 101 298 113T333 145V206H247Q236 206 226 204T207 197T193 181T188 154Q188 128 205 115T251 101ZM227 576L115 721H256L330 576H227Z" />
<glyph unicode="&#xe1;" horiz-adv-x="554" d="M191 -12Q143 -12 106 8T49 64T28 145Q28 184 40 212T77 259T137 286T218 295H330V338Q330 352 326 364T313 385T288 399T246 404Q203 404 161 394T88 373L61 490Q86 500 121 509T196 525T276 532Q341 532 384 520T452
483T487 424T498 343V122Q498 90 499 57T503 0H382L348 62H346Q315 26 276 7T191 -12ZM251 101Q274 101 298 113T333 145V206H247Q236 206 226 204T207 197T193 181T188 154Q188 128 205 115T251 101ZM227 576L302 721H443L331 576H227Z" />
<glyph unicode="&#xe2;" horiz-adv-x="554" d="M191 -12Q143 -12 106 8T49 64T28 145Q28 184 40 212T77 259T137 286T218 295H330V338Q330 352 326 364T313 385T288 399T246 404Q203 404 161 394T88 373L61 490Q86 500 121 509T196 525T276 532Q341 532 384 520T452
483T487 424T498 343V122Q498 90 499 57T503 0H382L348 62H346Q315 26 276 7T191 -12ZM251 101Q274 101 298 113T333 145V206H247Q236 206 226 204T207 197T193 181T188 154Q188 128 205 115T251 101ZM95 576L198 719H358L464 576H335L279 669L223 576H95Z" />
<glyph unicode="&#xe3;" horiz-adv-x="554" d="M191 -12Q143 -12 106 8T49 64T28 145Q28 184 40 212T77 259T137 286T218 295H330V338Q330 352 326 364T313 385T288 399T246 404Q203 404 161 394T88 373L61 490Q86 500 121 509T196 525T276 532Q341 532 384 520T452
483T487 424T498 343V122Q498 90 499 57T503 0H382L348 62H346Q315 26 276 7T191 -12ZM251 101Q274 101 298 113T333 145V206H247Q236 206 226 204T207 197T193 181T188 154Q188 128 205 115T251 101ZM377 725L458 707Q447 650 416 619T342 588Q319 588 300 596T266
614T238 632T214 640Q205 640 195 628T180 587L99 603Q109 660 140 691T214 723Q237 723 256 716T290 698T319 679T342 670Q352 670 361 683T377 725Z" />
<glyph unicode="&#xe4;" horiz-adv-x="554" d="M191 -12Q143 -12 106 8T49 64T28 145Q28 184 40 212T77 259T137 286T218 295H330V338Q330 352 326 364T313 385T288 399T246 404Q203 404 161 394T88 373L61 490Q86 500 121 509T196 525T276 532Q341 532 384 520T452
483T487 424T498 343V122Q498 90 499 57T503 0H382L348 62H346Q315 26 276 7T191 -12ZM251 101Q274 101 298 113T333 145V206H247Q236 206 226 204T207 197T193 181T188 154Q188 128 205 115T251 101ZM173 581Q140 581 119 601T98 652Q98 682 119 702T173 723Q205
723 226 703T247 652Q247 622 226 602T173 581ZM386 581Q354 581 333 601T312 652Q312 682 333 702T386 723Q419 723 440 703T461 652Q461 622 440 602T386 581Z" />
<glyph unicode="&#xe5;" horiz-adv-x="554" d="M191 -12Q143 -12 106 8T49 64T28 145Q28 184 40 212T77 259T137 286T218 295H330V338Q330 352 326 364T313 385T288 399T246 404Q203 404 161 394T88 373L61 490Q86 500 121 509T196 525T276 532Q341 532 384 520T452
483T487 424T498 343V122Q498 90 499 57T503 0H382L348 62H346Q315 26 276 7T191 -12ZM251 101Q274 101 298 113T333 145V206H247Q236 206 226 204T207 197T193 181T188 154Q188 128 205 115T251 101ZM279 792Q235 792 204 823T173 899Q173 928 187 952T226 990T279
1005Q309 1005 333 991T371 952T386 900Q386 870 372 846T333 807T279 792ZM279 847Q301 847 316 862T332 899Q332 920 317 935T280 950Q258 950 243 935T228 899Q228 878 243 863T279 847Z" />
<glyph unicode="&#xe6;" horiz-adv-x="846" d="M191 -12Q143 -12 106 8T49 64T28 145Q28 184 40 212T77 260T137 288T218 297H330V338Q330 352 326 364T313 385T288 399T246 404Q203 404 161 394T88 373L61 490Q86 500 121 509T196 525T276 532Q335 532 372 520T429
483T457 424T465 343V240Q434 159 402 110T335 34T266 -2T191 -12ZM245 100Q264 100 281 108T313 134T333 181V208H247Q236 208 226 206T207 197T193 181T188 155Q188 127 204 114T245 100ZM603 -12Q515 -12 455 19T364 110T333 254Q333 307 348 356T394 445T475
508T592 532Q661 532 707 507T780 438T813 337T811 216H419L510 283Q493 238 495 206T514 153T561 122T627 112Q664 112 704 119T775 136L792 21Q750 5 700 -3T603 -12ZM420 304H663Q664 310 664 313T664 319Q664 345 657 366T633 402T587 416Q551 416 530 395T501
339T500 266L420 304Z" />
<glyph unicode="&#xe7;" horiz-adv-x="490" d="M305 -12Q223 -12 161 19T65 111T30 258Q30 336 63 398T162 495T323 531Q354 531 392 526T462 507L445 384Q425 391 395 397T332 403Q294 403 265 388T219 341T203 262Q203 211 222 180T273 133T340 118Q372 118
402 124T454 136L467 15Q439 4 393 -4T305 -12ZM260 -237Q236 -237 211 -233T162 -222L187 -171Q205 -174 223 -176T256 -178Q290 -178 306 -168T322 -138Q322 -119 310 -112T278 -105T240 -112L213 -87L255 0H320L290 -61Q323 -58 349 -66T390 -91T405 -135Q405
-182 366 -209T260 -237Z" />
<glyph unicode="&#xe8;" horiz-adv-x="547" d="M304 -12Q215 -12 155 19T62 110T30 254Q30 308 46 357T94 446T175 509T292 532Q361 532 408 507T481 438T514 338T512 218H119L210 285Q188 224 198 186T243 130T327 112Q364 112 404 119T476 136L493 21Q450 5
400 -3T304 -12ZM120 306H364Q365 311 365 314T365 319Q365 345 358 366T334 402T287 416Q252 416 230 395T201 339T200 268L120 306ZM244 576L132 721H273L347 576H244Z" />
<glyph unicode="&#xe9;" horiz-adv-x="547" d="M304 -12Q215 -12 155 19T62 110T30 254Q30 308 46 357T94 446T175 509T292 532Q361 532 408 507T481 438T514 338T512 218H119L210 285Q188 224 198 186T243 130T327 112Q364 112 404 119T476 136L493 21Q450 5
400 -3T304 -12ZM120 306H364Q365 311 365 314T365 319Q365 345 358 366T334 402T287 416Q252 416 230 395T201 339T200 268L120 306ZM244 576L319 721H460L348 576H244Z" />
<glyph unicode="&#xea;" horiz-adv-x="547" d="M304 -12Q215 -12 155 19T62 110T30 254Q30 308 46 357T94 446T175 509T292 532Q361 532 408 507T481 438T514 338T512 218H119L210 285Q188 224 198 186T243 130T327 112Q364 112 404 119T476 136L493 21Q450 5
400 -3T304 -12ZM120 306H364Q365 311 365 314T365 319Q365 345 358 366T334 402T287 416Q252 416 230 395T201 339T200 268L120 306ZM112 576L215 719H375L481 576H352L296 669L240 576H112Z" />
<glyph unicode="&#xeb;" horiz-adv-x="547" d="M304 -12Q215 -12 155 19T62 110T30 254Q30 308 46 357T94 446T175 509T292 532Q361 532 408 507T481 438T514 338T512 218H119L210 285Q188 224 198 186T243 130T327 112Q364 112 404 119T476 136L493 21Q450 5
400 -3T304 -12ZM120 306H364Q365 311 365 314T365 319Q365 345 358 366T334 402T287 416Q252 416 230 395T201 339T200 268L120 306ZM189 581Q156 581 135 601T114 652Q114 682 135 702T189 723Q221 723 242 703T263 652Q263 622 242 602T189 581ZM402 581Q370
581 349 601T328 652Q328 682 349 702T402 723Q435 723 456 703T477 652Q477 622 456 602T402 581Z" />
<glyph unicode="&#xec;" horiz-adv-x="268" d="M49 0V520L218 525V0H49ZM347 845L268 990H408L450 845H347Z" />
<glyph unicode="&#xed;" horiz-adv-x="268" d="M49 0V520L218 525V0H49ZM327 845L369 990H510L429 845H327Z" />
<glyph unicode="&#xee;" horiz-adv-x="268" d="M49 0V520L218 525V0H49ZM252 847L328 990H448L526 847H429L389 940L349 847H252Z" />
<glyph unicode="&#xef;" horiz-adv-x="268" d="M49 0V520L218 525V0H49ZM292 581Q259 581 238 601T217 652Q217 682 238 702T292 723Q324 723 345 703T366 652Q366 622 345 602T292 581ZM485 581Q453 581 432 601T411 652Q411 682 432 702T485 723Q518 723 539
703T560 652Q560 622 539 602T485 581Z" />
<glyph unicode="&#xf0;" horiz-adv-x="576" d="M285 -10Q210 -10 153 20T64 103T31 228Q31 300 61 350T142 427T251 454Q284 454 308 445T350 419L352 421Q333 474 294 513T204 582T95 632L144 735Q231 711 304 668T431 566T515 434T545 278Q545 180 510 116T415
21T285 -10ZM291 112Q335 112 353 147T372 236Q372 269 364 294T338 334T291 349Q259 349 240 331T213 286T205 230Q205 200 213 173T241 129T291 112ZM143 467L96 541L436 733L484 662L143 467Z" />
<glyph unicode="&#xf1;" horiz-adv-x="608" d="M54 348Q54 397 54 440T51 520L195 524L206 462H211Q227 477 252 493T309 520T379 532Q427 532 460 515T514 468T544 397T554 309V0H385V305Q385 329 380 346T365 376T342 393T312 398Q292 398 276 392T247 376T223
356V0H54V348ZM416 725L497 707Q486 650 455 619T381 588Q358 588 339 596T305 614T277 632T253 640Q244 640 234 628T219 587L138 603Q148 660 179 691T253 723Q276 723 295 716T329 698T358 679T381 670Q391 670 400 683T416 725Z" />
<glyph unicode="&#xf2;" horiz-adv-x="599" d="M300 -12Q250 -12 202 3T116 51T54 135T31 260Q31 333 54 385T115 469T202 516T300 532Q350 532 398 517T485 469T546 385T569 260Q569 187 547 135T486 51T399 4T300 -12ZM300 110Q321 110 338 118T368 143T388
189T395 260Q395 302 388 331T368 377T338 402T300 410Q280 410 263 402T232 377T212 331T205 260Q205 218 212 189T232 143T262 118T300 110ZM249 576L137 721H278L352 576H249Z" />
<glyph unicode="&#xf3;" horiz-adv-x="599" d="M300 -12Q250 -12 202 3T116 51T54 135T31 260Q31 333 54 385T115 469T202 516T300 532Q350 532 398 517T485 469T546 385T569 260Q569 187 547 135T486 51T399 4T300 -12ZM300 110Q321 110 338 118T368 143T388
189T395 260Q395 302 388 331T368 377T338 402T300 410Q280 410 263 402T232 377T212 331T205 260Q205 218 212 189T232 143T262 118T300 110ZM249 576L324 721H465L353 576H249Z" />
<glyph unicode="&#xf4;" horiz-adv-x="599" d="M300 -12Q250 -12 202 3T116 51T54 135T31 260Q31 333 54 385T115 469T202 516T300 532Q350 532 398 517T485 469T546 385T569 260Q569 187 547 135T486 51T399 4T300 -12ZM300 110Q321 110 338 118T368 143T388
189T395 260Q395 302 388 331T368 377T338 402T300 410Q280 410 263 402T232 377T212 331T205 260Q205 218 212 189T232 143T262 118T300 110ZM117 576L220 719H380L486 576H357L301 669L245 576H117Z" />
<glyph unicode="&#xf5;" horiz-adv-x="599" d="M300 -12Q250 -12 202 3T116 51T54 135T31 260Q31 333 54 385T115 469T202 516T300 532Q350 532 398 517T485 469T546 385T569 260Q569 187 547 135T486 51T399 4T300 -12ZM300 110Q321 110 338 118T368 143T388
189T395 260Q395 302 388 331T368 377T338 402T300 410Q280 410 263 402T232 377T212 331T205 260Q205 218 212 189T232 143T262 118T300 110ZM399 725L480 707Q469 650 438 619T364 588Q341 588 322 596T288 614T260 632T236 640Q227 640 217 628T202 587L121
603Q131 660 162 691T236 723Q259 723 278 716T312 698T341 679T364 670Q374 670 383 683T399 725Z" />
<glyph unicode="&#xf6;" horiz-adv-x="599" d="M300 -12Q250 -12 202 3T116 51T54 135T31 260Q31 333 54 385T115 469T202 516T300 532Q350 532 398 517T485 469T546 385T569 260Q569 187 547 135T486 51T399 4T300 -12ZM300 110Q321 110 338 118T368 143T388
189T395 260Q395 302 388 331T368 377T338 402T300 410Q280 410 263 402T232 377T212 331T205 260Q205 218 212 189T232 143T262 118T300 110ZM194 581Q161 581 140 601T119 652Q119 682 140 702T194 723Q226 723 247 703T268 652Q268 622 247 602T194 581ZM407
581Q375 581 354 601T333 652Q333 682 354 702T407 723Q440 723 461 703T482 652Q482 622 461 602T407 581Z" />
<glyph unicode="&#xf7;" horiz-adv-x="583" d="M50 371H527V269H50V371ZM289 51Q258 51 237 73T215 125Q215 156 236 177T289 198Q319 198 340 177T362 125Q362 95 341 73T289 51ZM289 442Q258 442 237 463T215 515Q215 546 236 567T289 589Q319 589 340 568T362
515Q362 484 341 463T289 442Z" />
<glyph unicode="&#xf8;" horiz-adv-x="594" d="M96 -24L451 573L503 545L149 -52L96 -24ZM300 -12Q250 -12 202 3T116 51T54 135T31 260Q31 333 54 385T115 469T202 516T300 532Q350 532 398 517T485 469T546 385T569 260Q569 187 547 135T486 51T399 4T300 -12ZM300
110Q321 110 338 117T368 142T388 188T395 260Q395 302 388 331T368 378T338 402T300 410Q280 410 263 403T232 378T212 332T205 260Q205 218 212 189T232 142T262 118T300 110Z" />
<glyph unicode="&#xf9;" horiz-adv-x="606" d="M230 -12Q162 -12 124 18T70 101T54 215V520H223V217Q223 171 240 147T297 122Q316 122 331 128T359 143T382 164V520H551V172Q551 123 551 80T554 0H437L400 66H396Q380 48 355 30T298 0T230 -12ZM251 576L139 721H280L354
576H251Z" />
<glyph unicode="&#xfa;" horiz-adv-x="606" d="M230 -12Q162 -12 124 18T70 101T54 215V520H223V217Q223 171 240 147T297 122Q316 122 331 128T359 143T382 164V520H551V172Q551 123 551 80T554 0H437L400 66H396Q380 48 355 30T298 0T230 -12ZM251 576L326 721H467L355
576H251Z" />
<glyph unicode="&#xfb;" horiz-adv-x="606" d="M230 -12Q162 -12 124 18T70 101T54 215V520H223V217Q223 171 240 147T297 122Q316 122 331 128T359 143T382 164V520H551V172Q551 123 551 80T554 0H437L400 66H396Q380 48 355 30T298 0T230 -12ZM119 576L222 719H382L488
576H359L303 669L247 576H119Z" />
<glyph unicode="&#xfc;" horiz-adv-x="606" d="M230 -12Q162 -12 124 18T70 101T54 215V520H223V217Q223 171 240 147T297 122Q316 122 331 128T359 143T382 164V520H551V172Q551 123 551 80T554 0H437L400 66H396Q380 48 355 30T298 0T230 -12ZM196 581Q163 581
142 601T121 652Q121 682 142 702T196 723Q228 723 249 703T270 652Q270 622 249 602T196 581ZM409 581Q377 581 356 601T335 652Q335 682 356 702T409 723Q442 723 463 703T484 652Q484 622 463 602T409 581Z" />
<glyph unicode="&#xfd;" horiz-adv-x="529" d="M203 10L262 124L351 520H530L265 -224H89L203 10ZM1 520H180L264 151H307L302 1H181L1 520ZM213 576L288 721H429L317 576H213Z" />
<glyph unicode="&#xfe;" horiz-adv-x="600" d="M54 -224V748L223 752V464H225Q243 487 280 509T368 532Q430 532 475 500T544 409T569 272Q569 186 540 123T461 24T350 -12Q323 -12 300 -5T259 16T225 47H223V-224H54ZM302 119Q337 119 357 139T386 193T395 264Q395
315 382 344T349 385T305 398Q288 398 272 392T244 376T223 353V190Q225 172 235 156T263 129T302 119Z" />
<glyph unicode="&#xff;" horiz-adv-x="529" d="M203 10L262 124L351 520H530L265 -224H89L203 10ZM1 520H180L264 151H307L302 1H181L1 520ZM159 581Q126 581 105 601T84 652Q84 682 105 702T159 723Q191 723 212 703T233 652Q233 622 212 602T159 581ZM372 581Q340
581 319 601T298 652Q298 682 319 702T372 723Q405 723 426 703T447 652Q447 622 426 602T372 581Z" />
<glyph unicode="&#x2013;" horiz-adv-x="564" d="M42 329H522V219H42V329Z" />
<glyph unicode="&#x2014;" horiz-adv-x="934" d="M42 329H891V219H42V329Z" />
<glyph unicode="&#x2018;" horiz-adv-x="320" d="M77 449L155 760L279 743L241 449H77Z" />
<glyph unicode="&#x2019;" horiz-adv-x="320" d="M165 449L41 466L79 760H243L165 449Z" />
<glyph unicode="&#x201a;" horiz-adv-x="320" d="M41 -122L79 172H243L165 -139L41 -122Z" />
<glyph unicode="&#x201c;" horiz-adv-x="556" d="M313 449L391 760L515 743L478 449H313ZM77 449L155 760L279 743L241 449H77Z" />
<glyph unicode="&#x201d;" horiz-adv-x="556" d="M401 449L277 466L315 760H479L401 449ZM165 449L41 466L79 760H243L165 449Z" />
<glyph unicode="&#x201e;" horiz-adv-x="556" d="M401 -139L277 -122L315 172H479L401 -139ZM165 -139L41 -122L79 172H243L165 -139Z" />
<glyph unicode="&#x2022;" horiz-adv-x="406" d="M203 141Q167 141 138 158T91 205T73 271Q73 308 90 337T137 383T203 401Q240 401 269 384T316 337T333 271Q333 235 316 206T270 159T203 141Z" />
<glyph unicode="&#x2039;" horiz-adv-x="384" d="M306 46L52 238V342L306 534V400L112 251V329L306 180V46Z" />
<glyph unicode="&#x203a;" horiz-adv-x="384" d="M78 46V180L272 329V251L78 400V534L333 342V238L78 46Z" />
</font>
</defs>
</svg>
