<?xml version="1.0" standalone="no"?>
<!DOCTYPE svg PUBLIC "-//W3C//DTD SVG 1.1//EN" "http://www.w3.org/Graphics/SVG/1.1/DTD/svg11.dtd" >
<svg xmlns="http://www.w3.org/2000/svg" xmlns:xlink="http://www.w3.org/1999/xlink" version="1.1">
<metadata>
Created by FontForge 20201107 at Tue May 31 14:07:32 2022
 By Unknown
</metadata>
<defs>
<font id="NotoSansJP-Light-Alphabetic" horiz-adv-x="1000" vert-adv-y="1000" >
  <font-face 
    font-weight="200"
    font-stretch="normal"
    units-per-em="1000"
    panose-1="2 0 3 3 0 0 0 0 0 0"
    ascent="800"
    descent="-200"
    x-height="533"
    cap-height="729"
    bbox="39 -253 959 807"
    underline-thickness="50"
    underline-position="-100"
    stemh="51"
    stemv="53"
    unicode-range="U+FF21-FF5A"
  />
    <missing-glyph />
    <glyph glyph-name="uniE6C7" unicode="&#xff21;" 
d="M168 0l290 730h68l291 -730h-64l-96 244h-331l-96 -244h-62zM342 291h300l-53 138c-33 86 -63 161 -95 248h-4c-31 -87 -62 -164 -94 -248z" />
    <glyph glyph-name="uniE6C8" unicode="&#xff22;" 
d="M251 0v730h236c178 0 271 -54 271 -178c0 -74 -38 -134 -123 -159v-5c109 -16 172 -79 172 -176c0 -148 -92 -212 -300 -212h-256zM310 411h153c167 0 234 41 234 134c0 99 -68 136 -223 136h-164v-270zM310 50h181c176 0 256 39 256 163c0 103 -76 149 -260 149h-177
v-312z" />
    <glyph glyph-name="uniE6C9" unicode="&#xff23;" 
d="M561 -12c-208 0 -353 148 -353 377c0 228 145 377 360 377c99 0 176 -42 222 -87l-36 -39c-45 43 -111 72 -185 72c-182 0 -299 -127 -299 -322s117 -324 294 -324c86 0 153 30 214 87l36 -38c-67 -66 -143 -103 -253 -103z" />
    <glyph glyph-name="uniE6CA" unicode="&#xff24;" 
d="M234 0v730h193c262 0 386 -141 386 -362c0 -222 -124 -368 -384 -368h-195zM292 52h129c225 0 330 126 330 316s-105 310 -330 310h-129v-626z" />
    <glyph glyph-name="uniE6CB" unicode="&#xff25;" 
d="M290 0v730h465v-53h-406v-264h335v-53h-335v-307h419v-53h-478z" />
    <glyph glyph-name="uniE6CC" unicode="&#xff26;" 
d="M311 0v730h465v-53h-405v-280h337v-53h-337v-344h-60z" />
    <glyph glyph-name="uniE6CD" unicode="&#xff27;" 
d="M549 -13c-218 0 -365 148 -365 378c0 231 152 377 373 377c117 0 187 -47 232 -89l-36 -39c-43 40 -102 74 -195 74c-187 0 -312 -125 -312 -322c0 -196 118 -325 308 -325c73 0 147 20 186 52v219h-202v51h260v-293c-54 -49 -136 -83 -249 -83z" />
    <glyph glyph-name="uniE6CE" unicode="&#xff28;" 
d="M215 0v730h59v-317h452v317h60v-730h-60v361h-452v-361h-59z" />
    <glyph glyph-name="uniE6CF" unicode="&#xff29;" 
d="M262 0v52h208v625h-208v53h476v-53h-208v-625h208v-52h-476z" />
    <glyph glyph-name="uniE6D0" unicode="&#xff2a;" 
d="M469 -12c-97 0 -166 41 -212 111l46 31c41 -61 94 -89 163 -89c99 0 154 51 154 167v522h61v-528c0 -120 -60 -214 -212 -214z" />
    <glyph glyph-name="uniE6D1" unicode="&#xff2b;" 
d="M258 0v730h59v-402h4l407 402h72l-270 -273l308 -457h-69l-279 416l-173 -171v-245h-59z" />
    <glyph glyph-name="uniE6D2" unicode="&#xff2c;" 
d="M317 0v730h60v-678h392v-52h-452z" />
    <glyph glyph-name="uniE6D3" unicode="&#xff2d;" 
d="M169 0v730h81l182 -420c22 -53 44 -106 67 -160h4c23 54 43 107 65 160l182 420h81v-730h-58v462c0 60 5 141 8 202h-5l-70 -164l-183 -422h-48l-184 422l-68 164h-5c4 -61 6 -142 6 -202v-462h-55z" />
    <glyph glyph-name="uniE6D4" unicode="&#xff2e;" 
d="M218 0v730h61l351 -501l99 -148h5c-5 71 -7 145 -7 217v432h57v-730h-63l-350 501l-99 148h-4c3 -71 6 -140 6 -212v-437h-56z" />
    <glyph glyph-name="uniE6D5" unicode="&#xff2f;" 
d="M500 -12c-205 0 -348 148 -348 379s143 375 348 375s348 -144 348 -375s-142 -379 -348 -379zM500 41c171 0 286 128 286 326s-115 321 -286 321s-286 -123 -286 -321s116 -326 286 -326z" />
    <glyph glyph-name="uniE6D6" unicode="&#xff30;" 
d="M267 0v730h215c193 0 306 -55 306 -206c0 -146 -113 -216 -301 -216h-161v-308h-59zM326 359h146c169 0 254 47 254 165c0 120 -88 155 -259 155h-141v-320z" />
    <glyph glyph-name="uniE6D7" unicode="&#xff31;" 
d="M749 -175c-146 0 -239 70 -282 164c-186 16 -315 160 -315 378c0 231 143 375 348 375c203 0 347 -144 347 -375c0 -217 -130 -361 -314 -377c38 -72 117 -111 224 -111c39 0 67 6 88 13l12 -50c-22 -9 -64 -17 -108 -17zM500 38c170 0 286 129 286 329
c0 198 -116 321 -286 321c-171 0 -286 -123 -286 -321c0 -200 115 -329 286 -329z" />
    <glyph glyph-name="uniE6D8" unicode="&#xff32;" 
d="M269 0v730h241c170 0 280 -53 280 -195c0 -117 -83 -184 -215 -199l233 -336h-70l-227 329h-184v-329h-58zM327 379h168c149 0 232 49 232 156s-85 144 -232 144h-168v-300z" />
    <glyph glyph-name="uniE6D9" unicode="&#xff33;" 
d="M510 -13c-124 0 -221 46 -288 112l38 42c62 -60 154 -100 251 -100c125 0 210 54 210 139c0 87 -73 120 -156 150l-126 47c-74 27 -172 74 -172 177c0 114 104 188 248 188c104 0 184 -39 238 -89l-36 -40c-51 44 -118 75 -203 75c-108 0 -186 -48 -186 -124
c0 -83 88 -116 150 -138l125 -46c97 -35 178 -85 178 -195c0 -115 -105 -198 -271 -198z" />
    <glyph glyph-name="uniE6DA" unicode="&#xff34;" 
d="M469 0v678h-272v52h605v-52h-272v-678h-61z" />
    <glyph glyph-name="uniE6DB" unicode="&#xff35;" 
d="M499 -13c-147 0 -284 70 -284 299v444h59v-440c0 -190 107 -249 225 -249c119 0 229 59 229 249v440h60v-444c0 -229 -141 -299 -289 -299z" />
    <glyph glyph-name="uniE6DC" unicode="&#xff36;" 
d="M468 0l-279 730h63l157 -420c33 -88 55 -156 90 -244h5c35 88 57 156 91 244l155 420h61l-277 -730h-66z" />
    <glyph glyph-name="uniE6DD" unicode="&#xff37;" 
d="M233 0l-194 730h63l107 -422c20 -79 40 -158 60 -238h4c22 80 44 159 67 238l131 422h59l133 -422c23 -79 45 -158 68 -238h5c20 80 37 159 55 238l109 422h59l-190 -730h-69l-152 487c-16 58 -30 108 -46 165h-4c-16 -57 -30 -107 -47 -165l-150 -487h-68z" />
    <glyph glyph-name="uniE6DE" unicode="&#xff38;" 
d="M213 0l252 377l-236 353h67l137 -209c22 -33 40 -60 69 -101h4c25 41 42 68 64 101l134 209h65l-235 -355l254 -375h-70l-142 218c-23 36 -49 72 -78 116h-4c-29 -44 -52 -80 -75 -116l-142 -218h-64z" />
    <glyph glyph-name="uniE6DF" unicode="&#xff39;" 
d="M470 0v293l-256 437h64l129 -223c31 -54 58 -105 91 -159h4c33 54 65 105 93 159l129 223h61l-256 -437v-293h-59z" />
    <glyph glyph-name="uniE6E0" unicode="&#xff3a;" 
d="M221 0v36l477 642h-441v52h519v-35l-478 -643h490v-52h-567z" />
    <glyph glyph-name="uniE6E7" unicode="&#xff41;" 
d="M671 129v163c-262 -22 -346 -72 -346 -154c0 -74 69 -101 139 -101c66 0 135 31 207 92zM675 78h-3c-61 -48 -142 -90 -221 -90c-96 0 -184 48 -184 146c0 119 118 176 404 201c-1 85 -37 161 -155 161c-78 0 -154 -39 -198 -70l-26 42c45 32 137 78 232 78
c143 0 205 -89 205 -208v-338h-49z" />
    <glyph glyph-name="uniE6E8" unicode="&#xff42;" 
d="M510 -12c-62 0 -131 25 -187 66h-4l-7 -54h-47v795h59v-229l-3 -103c62 45 136 82 213 82c167 0 245 -113 245 -269c0 -180 -122 -288 -269 -288zM505 38c121 0 213 96 213 237c0 121 -54 220 -196 220c-61 0 -128 -31 -198 -85v-306c64 -48 132 -66 181 -66z" />
    <glyph glyph-name="uniE6E9" unicode="&#xff43;" 
d="M552 -12c-166 0 -290 102 -290 278c0 177 132 279 292 279c90 0 150 -37 193 -79l-31 -39c-45 41 -96 68 -160 68c-138 0 -233 -94 -233 -229c0 -136 93 -228 232 -228c72 0 131 32 177 74l29 -40c-56 -52 -127 -84 -209 -84z" />
    <glyph glyph-name="uniE6EA" unicode="&#xff44;" 
d="M473 -13c-150 0 -252 103 -252 279c0 172 124 281 270 281c77 0 128 -24 189 -65l-4 97v216h59v-795h-48l-7 67h-3c-49 -44 -119 -80 -204 -80zM485 38c68 0 129 30 191 85v307c-62 47 -118 66 -179 66c-120 0 -215 -99 -215 -230c0 -135 81 -228 203 -228z" />
    <glyph glyph-name="uniE6EB" unicode="&#xff45;" 
d="M301 301h412c0 128 -76 196 -193 196c-107 0 -203 -75 -219 -196zM724 91l22 -42c-50 -33 -116 -61 -213 -61c-159 0 -292 104 -292 278c0 173 137 279 278 279c153 0 249 -94 249 -246c0 -14 -1 -30 -3 -43h-463c2 -130 97 -219 237 -219c73 0 133 19 185 54z" />
    <glyph glyph-name="uniE6EC" unicode="&#xff46;" 
d="M451 0v484h-159v44l159 5v60c0 133 66 214 203 214c49 0 96 -7 150 -32l-17 -44c-48 22 -80 27 -129 27c-108 0 -151 -64 -151 -162v-63h242v-49h-242v-484h-56z" />
    <glyph glyph-name="uniE6ED" unicode="&#xff47;" 
d="M597 -2h-132c-28 0 -57 2 -82 9c-60 -32 -82 -70 -82 -107c0 -63 68 -109 204 -109c141 0 227 66 227 131c0 57 -46 76 -135 76zM494 212c85 0 151 59 151 144c0 84 -69 144 -151 144c-84 0 -152 -60 -152 -144c0 -85 68 -144 152 -144zM455 50h140
c136 0 195 -35 195 -121c0 -94 -110 -182 -285 -182c-169 0 -258 59 -258 152c0 41 33 89 90 124v5c-28 13 -55 40 -55 85c0 34 24 72 66 101v4c-34 29 -64 74 -64 138c0 111 96 190 210 190c31 0 57 -4 79 -13h218v-47h-154c37 -30 64 -75 64 -131
c0 -111 -91 -187 -207 -187c-34 0 -74 8 -108 26c-30 -20 -51 -45 -51 -72c0 -49 47 -72 120 -72z" />
    <glyph glyph-name="uniE6EE" unicode="&#xff48;" 
d="M277 0v795h59v-224l-2 -120c62 55 129 96 216 96c118 0 185 -67 185 -206v-341h-59v333c0 112 -49 162 -143 162c-71 0 -125 -32 -197 -96v-399h-59z" />
    <glyph glyph-name="uniE6EF" unicode="&#xff49;" 
d="M471 0v533h59v-533h-59zM500 657c-32 0 -56 22 -56 56s24 56 56 56s56 -22 56 -56s-24 -56 -56 -56z" />
    <glyph glyph-name="uniE6F0" unicode="&#xff4a;" 
d="M382 -251c-50 0 -106 15 -146 36l21 46c36 -19 84 -32 129 -32c119 0 151 63 151 159v575h59v-569c0 -130 -51 -215 -214 -215zM566 657c-32 0 -56 22 -56 56s24 56 56 56s56 -22 56 -56s-24 -56 -56 -56z" />
    <glyph glyph-name="uniE6F1" unicode="&#xff4b;" 
d="M310 0v795h58v-576h3l304 315h68l-203 -212l236 -322h-65l-206 282l-137 -138v-144h-58z" />
    <glyph glyph-name="uniE6F2" unicode="&#xff4c;" 
d="M624 -12c-104 0 -163 56 -163 178v629h59v-637c0 -82 40 -120 113 -120c34 0 66 8 109 26l17 -44c-44 -17 -81 -32 -135 -32z" />
    <glyph glyph-name="uniE6F3" unicode="&#xff4d;" 
d="M93 0v534h49l6 -82h3c56 53 125 95 199 95c97 0 145 -44 169 -108c71 66 140 108 213 108c123 0 182 -71 182 -206v-341h-59v333c0 108 -42 162 -138 162c-59 0 -117 -32 -185 -96v-399h-59v333c0 106 -44 162 -138 162c-57 0 -118 -32 -183 -96v-399h-59z" />
    <glyph glyph-name="uniE6F4" unicode="&#xff4e;" 
d="M275 0v534h48l8 -82h2c62 53 129 95 216 95c124 0 185 -69 185 -206v-341h-60v333c0 110 -45 162 -142 162c-72 0 -125 -32 -198 -96v-399h-59z" />
    <glyph glyph-name="uniE6F5" unicode="&#xff4f;" 
d="M500 -12c-149 0 -279 102 -279 278c0 178 130 279 279 279s279 -101 279 -279c0 -176 -130 -278 -279 -278zM500 38c124 0 214 92 214 228s-90 229 -214 229s-214 -93 -214 -229s90 -228 214 -228z" />
    <glyph glyph-name="uniE6F6" unicode="&#xff50;" 
d="M264 -237v771h49l7 -66h3c59 41 133 79 210 79c162 0 244 -107 244 -272c0 -182 -125 -288 -268 -288c-61 0 -125 23 -187 65l1 -66v-223h-59zM504 38c124 0 212 95 212 236c0 129 -54 222 -195 222c-61 0 -125 -30 -198 -84v-308c66 -48 133 -66 181 -66z" />
    <glyph glyph-name="uniE6F7" unicode="&#xff51;" 
d="M674 -237l2 202l4 104c-55 -46 -121 -82 -206 -82c-149 0 -252 98 -252 279c0 172 127 281 270 281c74 0 128 -24 185 -64h4l7 51h47v-771h-61zM485 38c68 0 129 30 191 84v308c-62 48 -120 66 -179 66c-120 0 -214 -99 -214 -230c0 -140 77 -228 202 -228z" />
    <glyph glyph-name="uniE6F8" unicode="&#xff52;" 
d="M344 0v533h50l5 -130h3c56 86 143 142 247 142c38 0 74 -6 110 -22l-17 -51c-35 14 -59 20 -100 20c-89 0 -167 -44 -240 -164v-328h-58z" />
    <glyph glyph-name="uniE6F9" unicode="&#xff53;" 
d="M519 -12c-109 0 -199 37 -262 83l31 41c58 -47 126 -76 234 -76c107 0 160 46 160 99c0 47 -36 83 -187 119c-117 28 -208 76 -208 149c0 77 68 142 212 142c74 0 156 -27 207 -65l-30 -40c-47 35 -107 58 -179 58c-114 0 -149 -45 -149 -92c0 -49 68 -81 175 -107
c162 -40 219 -82 219 -160c0 -81 -81 -151 -223 -151z" />
    <glyph glyph-name="uniE6FA" unicode="&#xff54;" 
d="M607 -12c-149 0 -195 86 -195 214v282h-159v44l161 5l7 154h49v-154h279v-49h-279v-286c0 -101 31 -161 146 -161c55 0 98 11 139 26l15 -43c-48 -19 -111 -32 -163 -32z" />
    <glyph glyph-name="uniE6FB" unicode="&#xff55;" 
d="M452 -13c-119 0 -184 67 -184 206v341h59v-334c0 -111 46 -161 141 -161c71 0 127 33 197 105v390h58v-534h-49l-5 89h-3c-60 -61 -127 -102 -214 -102z" />
    <glyph glyph-name="uniE6FC" unicode="&#xff56;" 
d="M467 0l-230 534h62l138 -328c21 -51 42 -106 62 -154h5c21 48 43 103 62 154l138 328h59l-227 -534h-69z" />
    <glyph glyph-name="uniE6FD" unicode="&#xff57;" 
d="M272 0l-183 534h62l112 -338c13 -50 29 -96 42 -144h5c16 48 31 94 46 144l113 338h65l114 -338c17 -50 31 -96 46 -144h4c15 48 31 96 46 144l109 338h57l-177 -534h-75l-108 321c-17 52 -31 100 -48 153h-5c-17 -53 -33 -103 -51 -155l-105 -319h-69z" />
    <glyph glyph-name="uniE6FE" unicode="&#xff58;" 
d="M255 0l209 279l-191 255h65l98 -132c21 -29 44 -58 66 -88h5c20 30 41 59 62 89l95 131h63l-192 -260l210 -274h-66l-108 141c-23 33 -49 66 -74 98h-5c-23 -32 -47 -65 -70 -98l-103 -141h-64z" />
    <glyph glyph-name="uniE6FF" unicode="&#xff59;" 
d="M315 -240c-23 0 -48 5 -65 12l14 49c12 -5 32 -9 51 -9c77 0 123 58 155 135l17 46l-252 541h63l147 -327c21 -46 45 -102 68 -150h5c19 48 40 104 58 150l130 327h59l-240 -596c-37 -93 -100 -178 -210 -178z" />
    <glyph glyph-name="uniE700" unicode="&#xff5a;" 
d="M251 0v32l402 452h-360v49h443v-32l-401 -452h413v-49h-497z" />
  </font>
</defs>
</svg>
