<?xml version="1.0" encoding="iso-8859-1"?>
<!-- Generator: Adobe Illustrator 17.1.0, SVG Export Plug-In . SVG Version: 6.00 Build 0)  -->
<!DOCTYPE svg PUBLIC "-//W3C//DTD SVG 1.1//EN" "http://www.w3.org/Graphics/SVG/1.1/DTD/svg11.dtd">
<svg version="1.1" id="Capa_1" xmlns="http://www.w3.org/2000/svg" xmlns:xlink="http://www.w3.org/1999/xlink" x="0px" y="0px"
	 viewBox="0 0 282.244 282.244" style="enable-background:new 0 0 282.244 282.244;" xml:space="preserve">
<path d="M279.88,8.507c-1.617-1.617-3.978-2.437-7.018-2.437c-20.038,0-71.182,36.6-121.606,87.025
	c-20.724,20.724-39.338,41.725-54.117,60.938c-1.717-0.682-3.563-1.047-5.467-1.047c-3.955,0-7.673,1.54-10.47,4.337
	c-5.514,5.514-5.748,14.32-0.731,20.13c-4.058,6.285-8.037,13.043-11.045,19.425c-13.533-4.355-29.561-0.244-40.417,11.679
	C7.78,231.871,33.894,251.463,2.65,268.536c-17.437,9.529,55.994,14.358,79.567-11.531c9.957-10.935,12.964-25.588,9.073-38.021
	c5.813-2.725,12.406-6.473,19.593-11.11c2.695,2.352,6.1,3.648,9.71,3.648c3.955,0,7.673-1.54,10.47-4.337
	c4.315-4.315,5.402-10.652,3.267-15.988c18.923-14.547,40-33.105,60.961-54.065C255.07,77.351,292.226,20.853,279.88,8.507z"/>
<g>
</g>
<g>
</g>
<g>
</g>
<g>
</g>
<g>
</g>
<g>
</g>
<g>
</g>
<g>
</g>
<g>
</g>
<g>
</g>
<g>
</g>
<g>
</g>
<g>
</g>
<g>
</g>
<g>
</g>
</svg>
